HIERARCHY
ROOT Hips
{
  OFFSET -35.4901 99.2528 17.4586
  CHANNELS 6 Xposition Yposition Zposition Zrotation Xrotation Yrotation
  JOINT LeftUpLeg
  {
    OFFSET 8.64259 1.95398 -2.38835
    CHANNELS 3 Zrotation Xrotation Yrotation
    JOINT LeftLeg
    {
      OFFSET 43.7702 0 0
      CHANNELS 3 Zrotation Xrotation Yrotation
      JOINT LeftFoot
      {
        OFFSET 40.6238 0 0
        CHANNELS 3 Zrotation Xrotation Yrotation
        JOINT LeftToeBase
        {
          OFFSET 12.7242 0 0
          CHANNELS 3 Zrotation Xrotation Yrotation
          End Site
          {
            OFFSET 0 0 0
          }
        }
      }
    }
  }
  JOINT RightUpLeg
  {
    OFFSET -8.2249 1.95398 -2.59336
    CHANNELS 3 Zrotation Xrotation Yrotation
    JOINT RightLeg
    {
      OFFSET 43.5653 0 0
      CHANNELS 3 Zrotation Xrotation Yrotation
      JOINT RightFoot
      {
        OFFSET 40.6238 0 0
        CHANNELS 3 Zrotation Xrotation Yrotation
        JOINT RightToeBase
        {
          OFFSET 12.7242 0 0
          CHANNELS 3 Zrotation Xrotation Yrotation
          End Site
          {
            OFFSET 0 0 0
          }
        }
      }
    }
  }
  JOINT Spine
  {
    OFFSET 0.165834 0.87714 6.61349
    CHANNELS 3 Zrotation Xrotation Yrotation
    JOINT Spine1
    {
      OFFSET 7.38963 1.71661e-005 0
      CHANNELS 3 Zrotation Xrotation Yrotation
      JOINT Spine2
      {
        OFFSET 11.9445 1.14441e-005 0
        CHANNELS 3 Zrotation Xrotation Yrotation
        JOINT Spine3
        {
          OFFSET 14.7254 4.19617e-005 0
          CHANNELS 3 Zrotation Xrotation Yrotation
          JOINT Spine4
          {
            OFFSET 10.9679 0 0
            CHANNELS 3 Zrotation Xrotation Yrotation
            JOINT RightShoulder
            {
              OFFSET 2.46616 -1.6653 3.69651
              CHANNELS 3 Zrotation Xrotation Yrotation
              JOINT RightArm
              {
                OFFSET 13.0012 0 0
                CHANNELS 3 Zrotation Xrotation Yrotation
                JOINT RightForeArm
                {
                  OFFSET 28.7848 1.52588e-005 0
                  CHANNELS 3 Zrotation Xrotation Yrotation
                  JOINT RightHand
                  {
                    OFFSET 26.5688 1.52588e-005 0
                    CHANNELS 3 Zrotation Xrotation Yrotation
                    End Site
                    {
                      OFFSET 0 0 0
                    }
                  }
                }
              }
            }
            JOINT LeftShoulder
            {
              OFFSET 2.38034 -1.29275 -3.7523
              CHANNELS 3 Zrotation Xrotation Yrotation
              JOINT LeftArm
              {
                OFFSET 16.3182 6.10351e-005 0
                CHANNELS 3 Zrotation Xrotation Yrotation
                JOINT LeftForeArm
                {
                  OFFSET 27.0901 0 0
                  CHANNELS 3 Zrotation Xrotation Yrotation
                  JOINT LeftHand
                  {
                    OFFSET 24.5451 1.52588e-005 0
                    CHANNELS 3 Zrotation Xrotation Yrotation
                    End Site
                    {
                      OFFSET 0 0 0
                    }
                  }
                }
              }
            }
            JOINT Neck
            {
              OFFSET 5.0226 -0.0266342 0
              CHANNELS 3 Zrotation Xrotation Yrotation
              JOINT Head
              {
                OFFSET 6.69364 2.86102e-005 0
                CHANNELS 3 Zrotation Xrotation Yrotation
                End Site
                {
                  OFFSET 0 0 0
                }
              }
            }
          }
        }
      }
    }
  }
}
MOTION
Frames:	12
Frame Time:	0.0416667
-311.246 83.1835 -289.89 -109.197 60.0751 -75.0529 -165.602 -32.2587 95.1769 164.227 -65.1456 -167.667 168.87 -28.9335 -67.4304 -5.94649 -21.2351 21.5552 -163.45 35.6014 89.3368 -70.6106 -24.5938 -9.2388 78.7705 -10.3699 -2.95742 18.415 -0.570405 2.42977 3.41988 12.82 -91.3603 1.27828 6.30874 -2.44843 -10.3802 6.19491 -2.72453 -33.0373 6.75171 -0.431174 -13.0247 6.75173 -0.431178 99.9322 15.0291 -100.853 57.8942 41.1801 -6.9244 -40.5616 -19.1843 -89.5438 -23.6066 1.60949 -21.5583 -92.4957 -31.4838 69.186 -45.5254 7.49887 -67.7535 62.9123 1.40159 -86.3697 -7.53284 0.660052 -20.9101 26.4539 0.714141 23.4447 25.149 -9.33888 -6.05013 
-306.775 84.178 -285.381 -108.642 57.9608 -76.5596 -164.874 -16.576 96.4323 -64.9057 -71.1465 -17.1046 156.491 -15.8696 -52.5959 -12.4394 -13.7007 13.5371 -165.235 36.485 88.3488 -64.1194 -25.8614 -9.30254 70.8206 -6.43899 -2.13796 18.6573 -0.743642 2.76823 2.26532 12.8775 -90.6562 1.13124 4.2723 -1.13249 -10.5334 4.21832 -1.31972 -33.1243 4.4147 0.206282 -13.1116 4.4147 0.206282 99.5391 10.6899 -98.6283 66.147 34.2029 -4.53692 -42.9385 -18.4878 -93.419 -22.9187 2.17282 -26.2311 -88.0484 -27.3497 76.2647 -42.5549 1.10606 -75.8707 58.5461 -5.99751 -91.9608 -4.71863 0.339069 -23.2608 34.0763 4.3398 18.869 20.8364 -5.59783 -8.03872 
-301.892 85.4722 -279.609 -110.327 53.9808 -75.6572 -165.97 -7.08276 94.1235 -64.0572 5.80109 -1.29972 123.071 26.6164 -6.32201 -11.3252 1.32763 1.16376 -169.399 35.3992 88.6554 -55.1112 -28.3381 -10.0607 58.8135 -0.39132 -0.971592 19.0164 -1.45339 4.24834 0.827739 12.9129 -89.8199 1.04307 1.71991 0.410269 -10.6268 1.73627 0.334145 -33.1688 1.5171 0.908337 -13.1562 1.5171 0.90834 98.7911 1.80437 -97.2682 68.1711 24.1237 -2.29587 -43.3474 -12.537 -96.9602 -20.736 2.42697 -30.3678 -82.4077 -17.1207 85.9367 -35.9985 -7.56264 -78.0802 50.668 -8.21286 -95.9752 -0.447629 -0.352938 -18.9789 45.0522 6.00103 5.85698 9.32915 1.84341 -6.16377 
-297.188 90.2353 -273.84 -111.768 50.0477 -72.6319 -167.664 -5.51593 94.1473 -63.7128 18.739 1.18352 93.596 19.2508 13.997 8.93353 4.01755 -3.14178 -175.797 25.1683 89.7376 -31.4096 -38.2132 -8.83734 52.8407 2.49948 2.21244 15.909 -0.754092 2.98965 0.204518 12.5601 -89.6095 1.75028 0.558679 0.772488 -9.92075 0.592127 0.747134 -32.4544 0.300698 0.904675 -12.4418 0.300696 0.904663 97.0047 -10.0414 -97.978 61.0594 22.2493 2.9128 -36.5973 -8.96477 -97.6254 -16.9926 2.13081 -31.5505 -80.4495 -6.31956 88.6291 -25.9738 -9.49894 -69.0046 50.9755 -9.71659 -95.5468 -0.914699 -0.269751 -18.4063 47.7384 2.52357 -7.86687 -1.96247 6.6921 0.207677 
-291.372 93.2954 -267.805 -107.934 46.8883 -72.1984 -170.013 1.46203 96.8466 -59.8296 10.3084 1.92755 73.9602 6.65621 3.47949 25.9387 1.31617 -1.85091 -175.56 23.3943 90.7485 -30.6892 -34.9795 -8.87727 59.304 -0.649782 -0.482235 6.33107 -1.08803 3.96326 0.0751769 11.6154 -89.9784 3.64312 0.158792 0.0423721 -8.02781 0.16049 0.0353401 -30.563 0.138705 0.0881326 -10.5504 0.138715 0.0881461 94.6563 -22.2969 -99.561 49.3469 22.9445 4.42484 -37.4064 -8.60535 -100.106 -23.922 3.41114 -29.8633 -81.0964 -5.26184 86.5151 -11.6098 -1.54723 -55.3767 46.1252 -12.3072 -94.238 -1.11282 -0.231119 -17.1067 44.5148 0.117416 -15.7492 -7.53994 8.2305 5.4942 
-284.574 91.1927 -260.337 -106.896 45.4514 -72.6248 -170.671 6.98461 96.4804 -60.1578 13.9486 2.24229 78.3259 9.28736 6.62947 40.666 -0.37064 -0.623475 -175.938 27.5511 89.2401 -54.1047 -17.9897 -6.63673 69.2726 -4.96513 -1.53786 13.0343 -1.20276 3.94949 -0.162994 10.9836 -89.6628 4.90642 -0.187321 0.667576 -6.76469 -0.157756 0.675161 -29.2988 -0.379296 0.580417 -9.28615 -0.379285 0.580415 87.6153 -38.1884 -108.199 30.65 26.4426 -0.775583 -37.5929 -8.60795 -102.976 -28.303 3.56002 -26.1843 -82.1795 -7.73929 83.8189 -9.8163 12.2073 -35.9994 41.1514 -13.3253 -91.1308 0.82712 -0.478238 -18.3365 42.3161 -2.64389 -25.5822 -10.988 9.93641 11.0236 
-277.302 88.5824 -252.089 -106.879 44.861 -72.9857 -171.454 16.6187 95.5275 -66.0852 10.4505 2.28614 80.938 9.84176 2.31993 38.5611 1.03536 -3.26604 -176.886 27.262 86.8605 -77.4451 -10.137 -3.94566 72.8848 -6.93916 -2.90187 13.8378 -1.16458 3.86502 0.282958 10.2748 -89.9135 6.3236 0.601818 0.151579 -5.34718 0.607919 0.124935 -27.8833 0.528417 0.325445 -7.87066 0.528442 0.325452 90.5257 -43.8028 -101.498 19.2507 23.498 -8.2106 -37.1882 -4.71546 -106.194 -27.3518 2.74663 -22.7142 -84.0797 -19.2873 82.3437 -12.7227 22.8562 -23.4977 37.7655 -7.36941 -82.5882 -0.573321 -0.279615 -17.007 38.7812 -3.32914 -22.317 -11.4324 6.81666 10.4367 
-271.289 86.9279 -244.202 -106.651 45.4204 -76.1662 -172.329 24.1944 89.4135 -67.2865 8.55034 1.07603 80.7011 9.95897 3.94548 28.7666 0.478157 -0.824265 -177.81 19.4219 82.8483 -89.8977 -6.58043 -3.32796 72.3743 -7.00291 -3.39603 9.09825 -1.9972 5.40735 0.931346 9.47076 -89.8462 7.93194 1.92645 0.191472 -3.73758 1.93303 0.106445 -26.2831 1.77985 0.761811 -6.27046 1.77987 0.761806 95.4548 -37.0448 -94.3936 16.7554 23.433 -11.5961 -37.5628 -0.493661 -109.9 -24.6498 2.47186 -23.7807 -85.283 -30.1949 82.4441 -23.6041 24.6583 2.75991 42.8693 -12.8986 -86.2823 -5.97503 0.47814 -21.7961 32.4979 -4.23445 -17.1038 -9.88453 2.67819 7.76488 
-266.071 88.7028 -237.657 -112.42 45.2366 -72.378 -173.538 22.1548 88.457 -59.2476 7.70081 0.330813 74.009 7.20644 5.34574 24.0203 1.25671 -1.52303 179.52 -0.414168 82.7604 -82.7949 -16.2155 -5.113 68.6723 -4.95516 -2.74833 13.355 -1.8123 5.08423 2.1453 8.8564 -90.3546 9.18212 4.11998 -0.99721 -2.48282 4.0721 -1.17785 -25.0705 4.22886 0.289342 -5.05788 4.22889 0.289341 98.1142 -19.4382 -92.0987 18.2258 16.6987 -4.3745 -36.6017 3.48281 -114.417 -21.9776 2.1967 -24.0327 -84.4689 -39.1769 85.5659 -28.1896 31.9696 27.8631 35.3866 -23.4334 -96.9166 -5.39189 0.431103 -23.9681 18.6277 -5.91039 -8.05846 -6.22288 -3.31984 0.52374 
-259.954 92.461 -230.439 -116.504 45.5325 -70.1887 -175.642 16.3185 88.5821 -39.5973 9.38515 -0.660233 59.8973 0.872266 3.98093 19.0608 1.15626 -0.821065 178.071 -15.7585 86.1005 -65.7705 -24.875 -8.55513 69.5877 -4.89817 -1.1499 17.4455 -2.49668 6.43368 2.65157 8.41963 -90.1848 10.0623 5.19984 -0.804438 -1.59857 5.1594 -1.03312 -24.217 5.20053 0.799894 -4.20436 5.20056 0.799904 96.4839 -10.8166 -98.7407 21.9567 5.88745 -0.593602 -42.0518 9.16918 -110.642 -19.3256 1.4949 -22.8874 -81.3629 -36.7821 90.7098 -33.1583 25.1145 44.9053 37.2245 -31.0135 -106.94 -4.86935 0.388856 -26.4991 4.25581 -6.51911 -11.6932 -2.70176 -4.36785 -0.399578 
-251.236 94.9845 -221.96 -110.214 45.7001 -76.8431 -177.818 16.8277 88.9018 -17.8497 19.394 -1.13067 50.2415 -3.41324 -2.47886 18.2173 -3.10696 4.68808 176.678 -14.3918 88.5759 -52.8708 -24.1947 -7.27485 72.4477 -6.09764 -0.89682 19.5234 -2.60581 6.6897 2.39255 7.70575 -89.5555 11.4659 4.96791 0.375772 -0.195415 4.97965 0.156195 -22.7992 4.62474 1.8546 -2.78656 4.62473 1.85459 95.0089 -11.0273 -103.057 25.5931 -8.42412 1.06867 -41.9299 11.0554 -105.54 -20.4371 1.93805 -23.3013 -81.8636 -36.2725 89.7848 -31.1921 16.0868 46.1545 37.7178 -29.9764 -108.937 -2.53472 -0.0572032 -27.1902 -1.18857 -6.17708 -15.3224 -2.82634 -4.08549 0.247991 
-240.951 93.8801 -212.438 -101.916 42.1322 -82.5233 -177.43 31.0917 90.1546 -34.386 26.2237 0.0701396 61.3991 0.934888 1.86548 21.4351 -2.84981 4.58217 176.877 0.167007 90.5536 -50.9971 -14.0037 -3.39674 73.4295 -6.68043 -3.67198 26.7535 -4.30402 11.3517 1.58314 7.47557 -89.493 11.919 3.38712 0.6487 0.252367 3.41237 0.498825 -22.3111 3.0355 1.6375 -2.29843 3.03549 1.6375 92.7418 -18.0969 -105.732 29.2041 -15.1651 8.21908 -43.2827 12.7816 -103.253 -21.2042 2.17201 -23.7077 -83.3026 -44.6433 88.2213 -20.5375 16.361 27.3467 36.2509 -25.3227 -105.944 -0.458264 -0.38799 -22.591 9.43506 -6.34257 -9.27841 -8.6009 -4.04724 -2.77868 
